<svg version="1.1" xmlns="http://www.w3.org/2000/svg" xmlns:xlink="http://www.w3.org/1999/xlink" width="431.9326171875" height="363"><defs/><g><g transform="translate(-86,-94) scale(1,1)"><rect fill="#C0C0C0" stroke="none" x="231" y="111" width="172.04443359375" height="45" opacity="0.2"/></g><g transform="translate(-86,-94) scale(1,1)"><rect fill="#ffffff" stroke="none" x="224" y="104" width="172.04443359375" height="45"/></g><g transform="translate(-86,-94) scale(1,1)"><path fill="none" stroke="#000000" d="M 224 104 L 396.04443359375 104 L 396.04443359375 149 L 224 149 L 224 104 Z Z" stroke-miterlimit="10"/></g><g transform="translate(-86,-94) scale(1,1)"><path fill="none" stroke="#000000" d="M 224 127 L 396.04443359375 127" stroke-miterlimit="10"/></g><g transform="translate(-86,-94) scale(1,1)"><path fill="none" stroke="#000000" d="M 234 127 L 234 149" stroke-miterlimit="10"/></g><g transform="translate(-86,-94) scale(1,1)"><path fill="none" stroke="#000000" d="M 298.18994140625 127 L 298.18994140625 149" stroke-miterlimit="10"/></g><g transform="translate(-86,-94) scale(1,1)"><g><path fill="none" stroke="none"/><text fill="#000000" stroke="none" font-family="Arial" font-size="13px" font-style="normal" font-weight="bold" text-decoration="none" x="264.5" y="121.5">ApplicationUser</text></g></g><g transform="translate(-86,-94) scale(1,1)"><g><path fill="none" stroke="none"/><text fill="#000000" stroke="none" font-family="Arial" font-size="13px" font-style="normal" font-weight="normal" text-decoration="none" x="229" y="145"></text></g></g><g transform="translate(-86,-94) scale(1,1)"><g><path fill="none" stroke="none"/><text fill="#000000" stroke="none" font-family="Arial" font-size="13px" font-style="normal" font-weight="normal" text-decoration="none" x="239" y="145">manager</text></g></g><g transform="translate(-86,-94) scale(1,1)"><g><path fill="none" stroke="none"/><text fill="#000000" stroke="none" font-family="Arial" font-size="13px" font-style="normal" font-weight="normal" text-decoration="none" x="303.18994140625" y="145">ClaimsIdentity</text></g></g><g transform="translate(-86,-94) scale(1,1)"><rect fill="#C0C0C0" stroke="none" x="103" y="295" width="120.7236328125" height="75" opacity="0.2"/></g><g transform="translate(-86,-94) scale(1,1)"><rect fill="#ffffff" stroke="none" x="96" y="288" width="120.7236328125" height="75"/></g><g transform="translate(-86,-94) scale(1,1)"><path fill="none" stroke="#000000" d="M 96 288 L 216.7236328125 288 L 216.7236328125 363 L 96 363 L 96 288 Z Z" stroke-miterlimit="10"/></g><g transform="translate(-86,-94) scale(1,1)"><path fill="none" stroke="#000000" d="M 96 311 L 216.7236328125 311" stroke-miterlimit="10"/></g><g transform="translate(-86,-94) scale(1,1)"><path fill="none" stroke="#000000" d="M 106 311 L 106 363" stroke-miterlimit="10"/></g><g transform="translate(-86,-94) scale(1,1)"><path fill="none" stroke="#000000" d="M 151.4072265625 311 L 151.4072265625 363" stroke-miterlimit="10"/></g><g transform="translate(-86,-94) scale(1,1)"><g><path fill="none" stroke="none"/><text fill="#000000" stroke="none" font-family="Arial" font-size="13px" font-style="normal" font-weight="bold" text-decoration="none" x="141.19091796875" y="305.5">Actor</text></g></g><g transform="translate(-86,-94) scale(1,1)"><g><path fill="none" stroke="none"/><text fill="#000000" stroke="none" font-family="Arial" font-size="13px" font-style="normal" font-weight="normal" text-decoration="none" x="101" y="329"></text></g></g><g transform="translate(-86,-94) scale(1,1)"><g><path fill="none" stroke="none"/><text fill="#000000" stroke="none" font-family="Arial" font-size="13px" font-style="normal" font-weight="normal" text-decoration="none" x="111" y="329">Id</text></g></g><g transform="translate(-86,-94) scale(1,1)"><g><path fill="none" stroke="none"/><text fill="#000000" stroke="none" font-family="Arial" font-size="13px" font-style="normal" font-weight="normal" text-decoration="none" x="156.4072265625" y="329">int</text></g></g><g transform="translate(-86,-94) scale(1,1)"><g><path fill="none" stroke="none"/><text fill="#000000" stroke="none" font-family="Arial" font-size="13px" font-style="normal" font-weight="normal" text-decoration="none" x="101" y="344"></text></g></g><g transform="translate(-86,-94) scale(1,1)"><g><path fill="none" stroke="none"/><text fill="#000000" stroke="none" font-family="Arial" font-size="13px" font-style="normal" font-weight="normal" text-decoration="none" x="111" y="344">Name</text></g></g><g transform="translate(-86,-94) scale(1,1)"><g><path fill="none" stroke="none"/><text fill="#000000" stroke="none" font-family="Arial" font-size="13px" font-style="normal" font-weight="normal" text-decoration="none" x="156.4072265625" y="344">string</text></g></g><g transform="translate(-86,-94) scale(1,1)"><g><path fill="none" stroke="none"/><text fill="#000000" stroke="none" font-family="Arial" font-size="13px" font-style="normal" font-weight="normal" text-decoration="none" x="101" y="359"></text></g></g><g transform="translate(-86,-94) scale(1,1)"><g><path fill="none" stroke="none"/><text fill="#000000" stroke="none" font-family="Arial" font-size="13px" font-style="normal" font-weight="normal" text-decoration="none" x="111" y="359">Info</text></g></g><g transform="translate(-86,-94) scale(1,1)"><g><path fill="none" stroke="none"/><text fill="#000000" stroke="none" font-family="Arial" font-size="13px" font-style="normal" font-weight="normal" text-decoration="none" x="156.4072265625" y="359">string</text></g></g><g transform="translate(-86,-94) scale(1,1)"><rect fill="#C0C0C0" stroke="none" x="327" y="319" width="187.9326171875" height="135" opacity="0.2"/></g><g transform="translate(-86,-94) scale(1,1)"><rect fill="#ffffff" stroke="none" x="320" y="312" width="187.9326171875" height="135"/></g><g transform="translate(-86,-94) scale(1,1)"><path fill="none" stroke="#000000" d="M 320 312 L 507.9326171875 312 L 507.9326171875 447 L 320 447 L 320 312 Z Z" stroke-miterlimit="10"/></g><g transform="translate(-86,-94) scale(1,1)"><path fill="none" stroke="#000000" d="M 320 335 L 507.9326171875 335" stroke-miterlimit="10"/></g><g transform="translate(-86,-94) scale(1,1)"><path fill="none" stroke="#000000" d="M 330 335 L 330 447" stroke-miterlimit="10"/></g><g transform="translate(-86,-94) scale(1,1)"><path fill="none" stroke="#000000" d="M 440.41357421875 335 L 440.41357421875 447" stroke-miterlimit="10"/></g><g transform="translate(-86,-94) scale(1,1)"><g><path fill="none" stroke="none"/><text fill="#000000" stroke="none" font-family="Arial" font-size="13px" font-style="normal" font-weight="bold" text-decoration="none" x="376.75634765625" y="329.5">Performance</text></g></g><g transform="translate(-86,-94) scale(1,1)"><g><path fill="none" stroke="none"/><text fill="#000000" stroke="none" font-family="Arial" font-size="13px" font-style="normal" font-weight="normal" text-decoration="none" x="325" y="353"></text></g></g><g transform="translate(-86,-94) scale(1,1)"><g><path fill="none" stroke="none"/><text fill="#000000" stroke="none" font-family="Arial" font-size="13px" font-style="normal" font-weight="normal" text-decoration="none" x="335" y="353">Id</text></g></g><g transform="translate(-86,-94) scale(1,1)"><g><path fill="none" stroke="none"/><text fill="#000000" stroke="none" font-family="Arial" font-size="13px" font-style="normal" font-weight="normal" text-decoration="none" x="445.41357421875" y="353">int</text></g></g><g transform="translate(-86,-94) scale(1,1)"><g><path fill="none" stroke="none"/><text fill="#000000" stroke="none" font-family="Arial" font-size="13px" font-style="normal" font-weight="normal" text-decoration="none" x="325" y="368"></text></g></g><g transform="translate(-86,-94) scale(1,1)"><g><path fill="none" stroke="none"/><text fill="#000000" stroke="none" font-family="Arial" font-size="13px" font-style="normal" font-weight="normal" text-decoration="none" x="335" y="368">Info</text></g></g><g transform="translate(-86,-94) scale(1,1)"><g><path fill="none" stroke="none"/><text fill="#000000" stroke="none" font-family="Arial" font-size="13px" font-style="normal" font-weight="normal" text-decoration="none" x="445.41357421875" y="368">string</text></g></g><g transform="translate(-86,-94) scale(1,1)"><g><path fill="none" stroke="none"/><text fill="#000000" stroke="none" font-family="Arial" font-size="13px" font-style="normal" font-weight="normal" text-decoration="none" x="325" y="383"></text></g></g><g transform="translate(-86,-94) scale(1,1)"><g><path fill="none" stroke="none"/><text fill="#000000" stroke="none" font-family="Arial" font-size="13px" font-style="normal" font-weight="normal" text-decoration="none" x="335" y="383">Holl</text></g></g><g transform="translate(-86,-94) scale(1,1)"><g><path fill="none" stroke="none"/><text fill="#000000" stroke="none" font-family="Arial" font-size="13px" font-style="normal" font-weight="normal" text-decoration="none" x="445.41357421875" y="383">string</text></g></g><g transform="translate(-86,-94) scale(1,1)"><g><path fill="none" stroke="none"/><text fill="#000000" stroke="none" font-family="Arial" font-size="13px" font-style="normal" font-weight="normal" text-decoration="none" x="325" y="398"></text></g></g><g transform="translate(-86,-94) scale(1,1)"><g><path fill="none" stroke="none"/><text fill="#000000" stroke="none" font-family="Arial" font-size="13px" font-style="normal" font-weight="normal" text-decoration="none" x="335" y="398">Type</text></g></g><g transform="translate(-86,-94) scale(1,1)"><g><path fill="none" stroke="none"/><text fill="#000000" stroke="none" font-family="Arial" font-size="13px" font-style="normal" font-weight="normal" text-decoration="none" x="445.41357421875" y="398">string</text></g></g><g transform="translate(-86,-94) scale(1,1)"><g><path fill="none" stroke="none"/><text fill="#000000" stroke="none" font-family="Arial" font-size="13px" font-style="normal" font-weight="normal" text-decoration="none" x="325" y="413"></text></g></g><g transform="translate(-86,-94) scale(1,1)"><g><path fill="none" stroke="none"/><text fill="#000000" stroke="none" font-family="Arial" font-size="13px" font-style="normal" font-weight="normal" text-decoration="none" x="335" y="413">Price</text></g></g><g transform="translate(-86,-94) scale(1,1)"><g><path fill="none" stroke="none"/><text fill="#000000" stroke="none" font-family="Arial" font-size="13px" font-style="normal" font-weight="normal" text-decoration="none" x="445.41357421875" y="413">int</text></g></g><g transform="translate(-86,-94) scale(1,1)"><g><path fill="none" stroke="none"/><text fill="#000000" stroke="none" font-family="Arial" font-size="13px" font-style="normal" font-weight="normal" text-decoration="none" x="325" y="428"></text></g></g><g transform="translate(-86,-94) scale(1,1)"><g><path fill="none" stroke="none"/><text fill="#000000" stroke="none" font-family="Arial" font-size="13px" font-style="normal" font-weight="normal" text-decoration="none" x="335" y="428">DateTimeTuples</text></g></g><g transform="translate(-86,-94) scale(1,1)"><g><path fill="none" stroke="none"/><text fill="#000000" stroke="none" font-family="Arial" font-size="13px" font-style="normal" font-weight="normal" text-decoration="none" x="445.41357421875" y="428">DateTime</text></g></g><g transform="translate(-86,-94) scale(1,1)"><g><path fill="none" stroke="none"/><text fill="#000000" stroke="none" font-family="Arial" font-size="13px" font-style="normal" font-weight="normal" text-decoration="none" x="325" y="443"></text></g></g><g transform="translate(-86,-94) scale(1,1)"><g><path fill="none" stroke="none"/><text fill="#000000" stroke="none" font-family="Arial" font-size="13px" font-style="normal" font-weight="normal" text-decoration="none" x="335" y="443">Name</text></g></g><g transform="translate(-86,-94) scale(1,1)"><g><path fill="none" stroke="none"/><text fill="#000000" stroke="none" font-family="Arial" font-size="13px" font-style="normal" font-weight="normal" text-decoration="none" x="445.41357421875" y="443">string</text></g></g><g transform="translate(-86,-94) scale(1,1)"><path fill="none" stroke="#000000" d="M 217 332 L 320 332" stroke-miterlimit="10"/></g><g transform="translate(-86,-94) scale(1,1)"><path fill="none" stroke="#000000" d="M 306 332 L 320 339" stroke-miterlimit="10"/></g><g transform="translate(-86,-94) scale(1,1)"><path fill="none" stroke="#000000" d="M 306 332 L 320 325" stroke-miterlimit="10"/></g><g transform="translate(-86,-94) scale(1,1)"><path fill="#FFFFFF" stroke="none" d="M 291 332 C 291 328.1340064 294.1340064 325 298 325 C 301.8659936 325 305 328.1340064 305 332 C 305 335.8659936 301.8659936 339 298 339 C 294.1340064 339 291 335.8659936 291 332 Z"/></g><g transform="translate(-86,-94) scale(1,1)"><path fill="none" stroke="#000000" d="M 291 332 C 291 328.1340064 294.1340064 325 298 325 C 301.8659936 325 305 328.1340064 305 332 C 305 335.8659936 301.8659936 339 298 339 C 294.1340064 339 291 335.8659936 291 332 Z" stroke-miterlimit="10"/></g><g transform="translate(-86,-94) scale(1,1)"><path fill="none" stroke="#000000" d="M 231 332 L 217 325" stroke-miterlimit="10"/></g><g transform="translate(-86,-94) scale(1,1)"><path fill="none" stroke="#000000" d="M 231 332 L 217 339" stroke-miterlimit="10"/></g><g transform="translate(-86,-94) scale(1,1)"><path fill="#FFFFFF" stroke="none" d="M 232 332 C 232 328.1340064 235.1340064 325 239 325 C 242.8659936 325 246 328.1340064 246 332 C 246 335.8659936 242.8659936 339 239 339 C 235.1340064 339 232 335.8659936 232 332 Z"/></g><g transform="translate(-86,-94) scale(1,1)"><path fill="none" stroke="#000000" d="M 232 332 C 232 328.1340064 235.1340064 325 239 325 C 242.8659936 325 246 328.1340064 246 332 C 246 335.8659936 242.8659936 339 239 339 C 235.1340064 339 232 335.8659936 232 332 Z" stroke-miterlimit="10"/></g><g transform="translate(-86,-94) scale(1,1)"><g><path fill="none" stroke="none"/><text fill="#000000" stroke="none" font-family="Arial" font-size="13px" font-style="normal" font-weight="normal" text-decoration="none" x="242" y="324"></text></g></g><g transform="translate(-86,-94) scale(1,1)"><g><path fill="none" stroke="none"/><text fill="#000000" stroke="none" font-family="Arial" font-size="13px" font-style="normal" font-weight="normal" text-decoration="none" x="294" y="324"></text></g></g><g transform="translate(-86,-94) scale(1,1)"><path fill="#ffffff" stroke="none" d="M 232 224 L 422.79345703125 224 L 432.79345703125 234 L 432.79345703125 277 L 232 277 L 232 224"/></g><g transform="translate(-86,-94) scale(1,1)"><path fill="none" stroke="#000000" d="M 232 224 L 422.79345703125 224 L 432.79345703125 234 L 432.79345703125 277 L 232 277 L 232 224 L 232 224" stroke-miterlimit="10"/></g><g transform="translate(-86,-94) scale(1,1)"><path fill="none" stroke="#000000" d="M 422.79345703125 224 L 422.79345703125 234 L 432.79345703125 234 L 422.79345703125 224" stroke-miterlimit="10"/></g><g transform="translate(-86,-94) scale(1,1)"><g><path fill="none" stroke="none"/><text fill="#000000" stroke="none" font-family="Arial" font-size="13px" font-style="normal" font-weight="normal" text-decoration="none" x="237" y="242">PerformanceActors</text></g></g><g transform="translate(-86,-94) scale(1,1)"><g><path fill="none" stroke="none"/><text fill="#000000" stroke="none" font-family="Arial" font-size="13px" font-style="normal" font-weight="normal" text-decoration="none" x="237" y="257">PerformanceId:Id(Performance)</text></g></g><g transform="translate(-86,-94) scale(1,1)"><g><path fill="none" stroke="none"/><text fill="#000000" stroke="none" font-family="Arial" font-size="13px" font-style="normal" font-weight="normal" text-decoration="none" x="237" y="272">ActorsId:Id(Actors)</text></g></g><g transform="translate(-86,-94) scale(1,1)"><path fill="none" stroke="#000000" d="M 268 332 L 310 279" stroke-miterlimit="10" stroke-dasharray="3"/></g></g></svg>