<svg version="1.1" xmlns="http://www.w3.org/2000/svg" xmlns:xlink="http://www.w3.org/1999/xlink" width="699" height="427"><defs/><g><g transform="translate(-70,-38) scale(1,1)"><rect fill="#C0C0C0" stroke="none" x="255" y="55" width="335" height="191" opacity="0.2"/></g><g transform="translate(-70,-38) scale(1,1)"><rect fill="#ffffff" stroke="none" x="248" y="48" width="335" height="191"/></g><g transform="translate(-70,-38) scale(1,1)"><path fill="none" stroke="#000000" d="M 248 48 L 583 48 L 583 239 L 248 239 L 248 48 Z Z" stroke-miterlimit="10"/></g><g transform="translate(-70,-38) scale(1,1)"><g><path fill="none" stroke="none"/><text fill="#000000" stroke="none" font-family="Arial" font-size="13px" font-style="normal" font-weight="bold" text-decoration="none" x="379.83251953125" y="67.5">Одмен кейс</text></g></g><g transform="translate(-70,-38) scale(1,1)"><rect fill="#C0C0C0" stroke="none" x="207" y="255" width="263" height="207" opacity="0.2"/></g><g transform="translate(-70,-38) scale(1,1)"><rect fill="#ffffff" stroke="none" x="200" y="248" width="263" height="207"/></g><g transform="translate(-70,-38) scale(1,1)"><path fill="none" stroke="#000000" d="M 200 248 L 463 248 L 463 455 L 200 455 L 200 248 Z Z" stroke-miterlimit="10"/></g><g transform="translate(-70,-38) scale(1,1)"><g><path fill="none" stroke="none"/><text fill="#000000" stroke="none" font-family="Arial" font-size="13px" font-style="normal" font-weight="bold" text-decoration="none" x="299.57763671875" y="267.5">Юзер кейс</text></g></g><g transform="translate(-70,-38) scale(1,1)"><rect fill="#C0C0C0" stroke="none" x="551" y="279" width="215" height="95" opacity="0.2"/></g><g transform="translate(-70,-38) scale(1,1)"><rect fill="#ffffff" stroke="none" x="544" y="272" width="215" height="95"/></g><g transform="translate(-70,-38) scale(1,1)"><path fill="none" stroke="#000000" d="M 544 272 L 759 272 L 759 367 L 544 367 L 544 272 Z Z" stroke-miterlimit="10"/></g><g transform="translate(-70,-38) scale(1,1)"><g><path fill="none" stroke="none"/><text fill="#000000" stroke="none" font-family="Arial" font-size="13px" font-style="normal" font-weight="bold" text-decoration="none" x="570.91650390625" y="291.5">Работа с персоналом кейс</text></g></g><g transform="translate(-70,-38) scale(1,1)"><path fill="#ffffff" stroke="none" d="M 122.32365696022728 265.68 C 122.32365696022728 260.886167936 126.20949928517274 257 131.0029296875 257 C 135.79636008982726 257 139.68220241477272 260.886167936 139.68220241477272 265.68 C 139.68220241477272 270.473832064 135.79636008982726 274.36 131.0029296875 274.36 C 126.20949928517274 274.36 122.32365696022728 270.473832064 122.32365696022728 265.68 Z"/></g><g transform="translate(-70,-38) scale(1,1)"><path fill="none" stroke="#000000" d="M 122.32365696022728 265.68 C 122.32365696022728 260.886167936 126.20949928517274 257 131.0029296875 257 C 135.79636008982726 257 139.68220241477272 260.886167936 139.68220241477272 265.68 C 139.68220241477272 270.473832064 135.79636008982726 274.36 131.0029296875 274.36 C 126.20949928517274 274.36 122.32365696022728 270.473832064 122.32365696022728 265.68 Z" stroke-miterlimit="10"/></g><g transform="translate(-70,-38) scale(1,1)"><path fill="none" stroke="#000000" d="M 131.0029296875 274.36 L 131.0029296875 291.64" stroke-miterlimit="10"/></g><g transform="translate(-70,-38) scale(1,1)"><path fill="none" stroke="#000000" d="M 121.81311150568183 280.84 L 140.19274786931817 280.84" stroke-miterlimit="10"/></g><g transform="translate(-70,-38) scale(1,1)"><path fill="none" stroke="#000000" d="M 131.0029296875 291.64 L 118.23929332386365 309" stroke-miterlimit="10"/></g><g transform="translate(-70,-38) scale(1,1)"><path fill="none" stroke="#000000" d="M 131.0029296875 291.64 L 143.76656605113635 309" stroke-miterlimit="10"/></g><g transform="translate(-70,-38) scale(1,1)"><g><path fill="none" stroke="none"/><text fill="#000000" stroke="none" font-family="Arial" font-size="13px" font-style="normal" font-weight="bold" text-decoration="none" x="88.102294921875" y="329.5">Пользователь</text></g></g><g transform="translate(-70,-38) scale(1,1)"><path fill="#C0C0C0" stroke="none" d="M 255 296 C 255 286.6111584 293.7273648 279 341.5 279 C 389.2726352 279 428 286.6111584 428 296 C 428 305.3888416 389.2726352 313 341.5 313 C 293.7273648 313 255 305.3888416 255 296 Z" opacity="0.2"/></g><g transform="translate(-70,-38) scale(1,1)"><path fill="#ffffff" stroke="none" d="M 248 289 C 248 279.6111584 286.7273648 272 334.5 272 C 382.2726352 272 421 279.6111584 421 289 C 421 298.3888416 382.2726352 306 334.5 306 C 286.7273648 306 248 298.3888416 248 289 Z"/></g><g transform="translate(-70,-38) scale(1,1)"><path fill="none" stroke="#000000" d="M 248 289 C 248 279.6111584 286.7273648 272 334.5 272 C 382.2726352 272 421 279.6111584 421 289 C 421 298.3888416 382.2726352 306 334.5 306 C 286.7273648 306 248 298.3888416 248 289 Z" stroke-miterlimit="10"/></g><g transform="translate(-70,-38) scale(1,1)"><g><path fill="none" stroke="none"/><text fill="#000000" stroke="none" font-family="Arial" font-size="13px" font-style="normal" font-weight="bold" text-decoration="none" x="281.862060546875" y="296">Искать спектакли</text></g></g><g transform="translate(-70,-38) scale(1,1)"><path fill="none" stroke="#000000" d="M 183 293 L 247 292" stroke-miterlimit="10"/></g><g transform="translate(-70,-38) scale(1,1)"><path fill="#C0C0C0" stroke="none" d="M 255 336 C 255 326.6111584 293.5035072 319 341 319 C 388.4964928 319 427 326.6111584 427 336 C 427 345.3888416 388.4964928 353 341 353 C 293.5035072 353 255 345.3888416 255 336 Z" opacity="0.2"/></g><g transform="translate(-70,-38) scale(1,1)"><path fill="#ffffff" stroke="none" d="M 248 329 C 248 319.6111584 286.5035072 312 334 312 C 381.4964928 312 420 319.6111584 420 329 C 420 338.3888416 381.4964928 346 334 346 C 286.5035072 346 248 338.3888416 248 329 Z"/></g><g transform="translate(-70,-38) scale(1,1)"><path fill="none" stroke="#000000" d="M 248 329 C 248 319.6111584 286.5035072 312 334 312 C 381.4964928 312 420 319.6111584 420 329 C 420 338.3888416 381.4964928 346 334 346 C 286.5035072 346 248 338.3888416 248 329 Z" stroke-miterlimit="10"/></g><g transform="translate(-70,-38) scale(1,1)"><g><path fill="none" stroke="none"/><text fill="#000000" stroke="none" font-family="Arial" font-size="13px" font-style="normal" font-weight="bold" text-decoration="none" x="283.06640625" y="336">Искать где театр</text></g></g><g transform="translate(-70,-38) scale(1,1)"><path fill="none" stroke="#000000" d="M 183 304 L 247 314" stroke-miterlimit="10"/></g><g transform="translate(-70,-38) scale(1,1)"><path fill="#C0C0C0" stroke="none" d="M 259.005859375 376 C 259.005859375 366.6111584 297.28550897499997 359 344.505859375 359 C 391.72620977500003 359 430.005859375 366.6111584 430.005859375 376 C 430.005859375 385.3888416 391.72620977500003 393 344.505859375 393 C 297.28550897499997 393 259.005859375 385.3888416 259.005859375 376 Z" opacity="0.2"/></g><g transform="translate(-70,-38) scale(1,1)"><path fill="#ffffff" stroke="none" d="M 252.005859375 369 C 252.005859375 359.6111584 290.28550897499997 352 337.505859375 352 C 384.72620977500003 352 423.005859375 359.6111584 423.005859375 369 C 423.005859375 378.3888416 384.72620977500003 386 337.505859375 386 C 290.28550897499997 386 252.005859375 378.3888416 252.005859375 369 Z"/></g><g transform="translate(-70,-38) scale(1,1)"><path fill="none" stroke="#000000" d="M 252.005859375 369 C 252.005859375 359.6111584 290.28550897499997 352 337.505859375 352 C 384.72620977500003 352 423.005859375 359.6111584 423.005859375 369 C 423.005859375 378.3888416 384.72620977500003 386 337.505859375 386 C 290.28550897499997 386 252.005859375 378.3888416 252.005859375 369 Z" stroke-miterlimit="10"/></g><g transform="translate(-70,-38) scale(1,1)"><g><path fill="none" stroke="none"/><text fill="#000000" stroke="none" font-family="Arial" font-size="13px" font-style="normal" font-weight="bold" text-decoration="none" x="294.675048828125" y="376">Искать актёра</text></g></g><g transform="translate(-70,-38) scale(1,1)"><path fill="none" stroke="#000000" d="M 183 314 L 287 351" stroke-miterlimit="10"/></g><g transform="translate(-70,-38) scale(1,1)"><path fill="#C0C0C0" stroke="none" d="M 255 432 C 255 422.6111584 293.055792 415 340 415 C 386.944208 415 425 422.6111584 425 432 C 425 441.3888416 386.944208 449 340 449 C 293.055792 449 255 441.3888416 255 432 Z" opacity="0.2"/></g><g transform="translate(-70,-38) scale(1,1)"><path fill="#ffffff" stroke="none" d="M 248 425 C 248 415.6111584 286.055792 408 333 408 C 379.944208 408 418 415.6111584 418 425 C 418 434.3888416 379.944208 442 333 442 C 286.055792 442 248 434.3888416 248 425 Z"/></g><g transform="translate(-70,-38) scale(1,1)"><path fill="none" stroke="#000000" d="M 248 425 C 248 415.6111584 286.055792 408 333 408 C 379.944208 408 418 415.6111584 418 425 C 418 434.3888416 379.944208 442 333 442 C 286.055792 442 248 434.3888416 248 425 Z" stroke-miterlimit="10"/></g><g transform="translate(-70,-38) scale(1,1)"><g><path fill="none" stroke="none"/><text fill="#000000" stroke="none" font-family="Arial" font-size="13px" font-style="normal" font-weight="bold" text-decoration="none" x="284.681640625" y="432">Узнать о театре</text></g></g><g transform="translate(-70,-38) scale(1,1)"><path fill="none" stroke="#000000" d="M 183 328 L 305 407" stroke-miterlimit="10"/></g><g transform="translate(-70,-38) scale(1,1)"><path fill="#ffffff" stroke="none" d="M 649.3519772727273 129.68 C 649.3519772727273 124.886167936 653.2378195976727 121 658.03125 121 C 662.8246804023273 121 666.7105227272727 124.886167936 666.7105227272727 129.68 C 666.7105227272727 134.47383206400002 662.8246804023273 138.36 658.03125 138.36 C 653.2378195976727 138.36 649.3519772727273 134.47383206400002 649.3519772727273 129.68 Z"/></g><g transform="translate(-70,-38) scale(1,1)"><path fill="none" stroke="#000000" d="M 649.3519772727273 129.68 C 649.3519772727273 124.886167936 653.2378195976727 121 658.03125 121 C 662.8246804023273 121 666.7105227272727 124.886167936 666.7105227272727 129.68 C 666.7105227272727 134.47383206400002 662.8246804023273 138.36 658.03125 138.36 C 653.2378195976727 138.36 649.3519772727273 134.47383206400002 649.3519772727273 129.68 Z" stroke-miterlimit="10"/></g><g transform="translate(-70,-38) scale(1,1)"><path fill="none" stroke="#000000" d="M 658.03125 138.36 L 658.03125 155.64" stroke-miterlimit="10"/></g><g transform="translate(-70,-38) scale(1,1)"><path fill="none" stroke="#000000" d="M 648.8414318181818 144.84 L 667.2210681818182 144.84" stroke-miterlimit="10"/></g><g transform="translate(-70,-38) scale(1,1)"><path fill="none" stroke="#000000" d="M 658.03125 155.64 L 645.2676136363636 173" stroke-miterlimit="10"/></g><g transform="translate(-70,-38) scale(1,1)"><path fill="none" stroke="#000000" d="M 658.03125 155.64 L 670.7948863636364 173" stroke-miterlimit="10"/></g><g transform="translate(-70,-38) scale(1,1)"><g><path fill="none" stroke="none"/><text fill="#000000" stroke="none" font-family="Arial" font-size="13px" font-style="normal" font-weight="bold" text-decoration="none" x="637.50927734375" y="193.5">Одмен</text></g></g><g transform="translate(-70,-38) scale(1,1)"><path fill="#C0C0C0" stroke="none" d="M 311 96 C 311 86.6111584 362.93496319999997 79 427 79 C 491.06503680000003 79 543 86.6111584 543 96 C 543 105.3888416 491.06503680000003 113 427 113 C 362.93496319999997 113 311 105.3888416 311 96 Z" opacity="0.2"/></g><g transform="translate(-70,-38) scale(1,1)"><path fill="#ffffff" stroke="none" d="M 304 89 C 304 79.6111584 355.93496319999997 72 420 72 C 484.06503680000003 72 536 79.6111584 536 89 C 536 98.3888416 484.06503680000003 106 420 106 C 355.93496319999997 106 304 98.3888416 304 89 Z"/></g><g transform="translate(-70,-38) scale(1,1)"><path fill="none" stroke="#000000" d="M 304 89 C 304 79.6111584 355.93496319999997 72 420 72 C 484.06503680000003 72 536 79.6111584 536 89 C 536 98.3888416 484.06503680000003 106 420 106 C 355.93496319999997 106 304 98.3888416 304 89 Z" stroke-miterlimit="10"/></g><g transform="translate(-70,-38) scale(1,1)"><g><path fill="none" stroke="none"/><text fill="#000000" stroke="none" font-family="Arial" font-size="13px" font-style="normal" font-weight="bold" text-decoration="none" x="346.8876953125" y="96">Редактировать о театре</text></g></g><g transform="translate(-70,-38) scale(1,1)"><path fill="none" stroke="#000000" d="M 631 151 L 481 107" stroke-miterlimit="10"/></g><g transform="translate(-70,-38) scale(1,1)"><path fill="#C0C0C0" stroke="none" d="M 295 136 C 295 126.6111584 346.93496319999997 119 411 119 C 475.06503680000003 119 527 126.6111584 527 136 C 527 145.3888416 475.06503680000003 153 411 153 C 346.93496319999997 153 295 145.3888416 295 136 Z" opacity="0.2"/></g><g transform="translate(-70,-38) scale(1,1)"><path fill="#ffffff" stroke="none" d="M 288 129 C 288 119.6111584 339.93496319999997 112 404 112 C 468.06503680000003 112 520 119.6111584 520 129 C 520 138.3888416 468.06503680000003 146 404 146 C 339.93496319999997 146 288 138.3888416 288 129 Z"/></g><g transform="translate(-70,-38) scale(1,1)"><path fill="none" stroke="#000000" d="M 288 129 C 288 119.6111584 339.93496319999997 112 404 112 C 468.06503680000003 112 520 119.6111584 520 129 C 520 138.3888416 468.06503680000003 146 404 146 C 339.93496319999997 146 288 138.3888416 288 129 Z" stroke-miterlimit="10"/></g><g transform="translate(-70,-38) scale(1,1)"><g><path fill="none" stroke="none"/><text fill="#000000" stroke="none" font-family="Arial" font-size="13px" font-style="normal" font-weight="bold" text-decoration="none" x="331.02099609375" y="136">Редактировать о актёре</text></g></g><g transform="translate(-70,-38) scale(1,1)"><path fill="none" stroke="#000000" d="M 631 156 L 521 143" stroke-miterlimit="10"/></g><g transform="translate(-70,-38) scale(1,1)"><path fill="#C0C0C0" stroke="none" d="M 295 180 C 295 170.6111584 362.8288528 163 446.5 163 C 530.1711472 163 598 170.6111584 598 180 C 598 189.3888416 530.1711472 197 446.5 197 C 362.8288528 197 295 189.3888416 295 180 Z" opacity="0.2"/></g><g transform="translate(-70,-38) scale(1,1)"><path fill="#ffffff" stroke="none" d="M 288 173 C 288 163.6111584 355.8288528 156 439.5 156 C 523.1711472 156 591 163.6111584 591 173 C 591 182.3888416 523.1711472 190 439.5 190 C 355.8288528 190 288 182.3888416 288 173 Z"/></g><g transform="translate(-70,-38) scale(1,1)"><path fill="none" stroke="#000000" d="M 288 173 C 288 163.6111584 355.8288528 156 439.5 156 C 523.1711472 156 591 163.6111584 591 173 C 591 182.3888416 523.1711472 190 439.5 190 C 355.8288528 190 288 182.3888416 288 173 Z" stroke-miterlimit="10"/></g><g transform="translate(-70,-38) scale(1,1)"><g><path fill="none" stroke="none"/><text fill="#000000" stroke="none" font-family="Arial" font-size="13px" font-style="normal" font-weight="bold" text-decoration="none" x="344.10107421875" y="180">Добавить актёра или спектакль</text></g></g><g transform="translate(-70,-38) scale(1,1)"><path fill="none" stroke="#000000" d="M 631 161 L 592 163" stroke-miterlimit="10"/></g><g transform="translate(-70,-38) scale(1,1)"><path fill="#C0C0C0" stroke="none" d="M 295 224 C 295 214.6111584 360.1425616 207 440.5 207 C 520.8574384 207 586 214.6111584 586 224 C 586 233.3888416 520.8574384 241 440.5 241 C 360.1425616 241 295 233.3888416 295 224 Z" opacity="0.2"/></g><g transform="translate(-70,-38) scale(1,1)"><path fill="#ffffff" stroke="none" d="M 288 217 C 288 207.6111584 353.1425616 200 433.5 200 C 513.8574384 200 579 207.6111584 579 217 C 579 226.3888416 513.8574384 234 433.5 234 C 353.1425616 234 288 226.3888416 288 217 Z"/></g><g transform="translate(-70,-38) scale(1,1)"><path fill="none" stroke="#000000" d="M 288 217 C 288 207.6111584 353.1425616 200 433.5 200 C 513.8574384 200 579 207.6111584 579 217 C 579 226.3888416 513.8574384 234 433.5 234 C 353.1425616 234 288 226.3888416 288 217 Z" stroke-miterlimit="10"/></g><g transform="translate(-70,-38) scale(1,1)"><g><path fill="none" stroke="none"/><text fill="#000000" stroke="none" font-family="Arial" font-size="13px" font-style="normal" font-weight="bold" text-decoration="none" x="341.57958984375" y="224">Удалить актёра или спектакль</text></g></g><g transform="translate(-70,-38) scale(1,1)"><path fill="none" stroke="#000000" d="M 631 166 L 503 199" stroke-miterlimit="10"/></g><g transform="translate(-70,-38) scale(1,1)"><path fill="#C0C0C0" stroke="none" d="M 567 336 C 567 326.6111584 611.0999472 319 665.5 319 C 719.9000528 319 764 326.6111584 764 336 C 764 345.3888416 719.9000528 353 665.5 353 C 611.0999472 353 567 345.3888416 567 336 Z" opacity="0.2"/></g><g transform="translate(-70,-38) scale(1,1)"><path fill="#ffffff" stroke="none" d="M 560 329 C 560 319.6111584 604.0999472 312 658.5 312 C 712.9000528 312 757 319.6111584 757 329 C 757 338.3888416 712.9000528 346 658.5 346 C 604.0999472 346 560 338.3888416 560 329 Z"/></g><g transform="translate(-70,-38) scale(1,1)"><path fill="none" stroke="#000000" d="M 560 329 C 560 319.6111584 604.0999472 312 658.5 312 C 712.9000528 312 757 319.6111584 757 329 C 757 338.3888416 712.9000528 346 658.5 346 C 604.0999472 346 560 338.3888416 560 329 Z" stroke-miterlimit="10"/></g><g transform="translate(-70,-38) scale(1,1)"><g><path fill="none" stroke="none"/><text fill="#000000" stroke="none" font-family="Arial" font-size="13px" font-style="normal" font-weight="bold" text-decoration="none" x="597.616455078125" y="336">Убить разработчика</text></g></g><g transform="translate(-70,-38) scale(1,1)"><path fill="none" stroke="#000000" d="M 658 200 L 658 311" stroke-miterlimit="10"/></g></g></svg>